<svg width="30px" height="30px" viewBox="0 0 30 30" version="1.1" xmlns="http://www.w3.org/2000/svg" xmlns:xlink="http://www.w3.org/1999/xlink">
    <defs></defs>
    <g id="Page-1" stroke="none" stroke-width="1" fill="none" fill-rule="evenodd">
        <g id="Icons" transform="translate(-165.000000, -130.000000)" fill="#FFFFFF">
            <g id="Group-2" transform="translate(165.000000, 130.000000)">
                <path d="M24.9905222,3.81099177 C22.3378763,1.44083246 18.8372004,0 15,0 C6.71572875,0 0,6.71572875 0,15 C0,23.2842712 6.71572875,30 15,30 C23.2842712,30 30,23.2842712 30,15 C30,12.3959444 29.3364326,9.94687323 28.1691644,7.81265314 L15.8929909,22.6503083 C14.8228499,23.9437393 12.8073557,23.8358243 11.8814447,22.4355192 L7.37558531,15.6210661 C6.61405168,14.4693579 6.93035067,12.9183689 8.08205888,12.1568353 C9.23376709,11.3953017 10.7847561,11.7116007 11.5462897,12.8633089 L14.1913083,16.8635126 L24.9905222,3.81099177 Z" id="Combined-Shape"></path>
            </g>
        </g>
    </g>
</svg>
