<svg width="40px" height="42px" viewBox="0 0 40 42" version="1.1" xmlns="http://www.w3.org/2000/svg" xmlns:xlink="http://www.w3.org/1999/xlink">
    <g id="Page-1" stroke="none" stroke-width="1" fill="none" fill-rule="evenodd">
        <g id="Icons" transform="translate(-185.000000, -30.000000)" fill="#FFFFFF">
            <g id="Group" transform="translate(185.000000, 30.000000)">
                <path d="M39.0957749,29.7501685 C35.7777134,36.9794326 28.4751649,42 20,42 C11.6086909,42 4.36690856,37.0782911 1.00388227,29.9641026 C1.16888157,29.8820932 1.32225395,29.7800591 1.46399998,29.658 C1.89600214,29.2859981 2.11199998,28.7520035 2.11199998,28.056 L2.11199998,20.028 C2.11199998,18.635993 2.45399656,17.538004 3.13799998,16.734 C3.8220034,15.929996 4.7519941,15.528 5.92799998,15.528 C6.88800478,15.528 7.60199764,15.8099972 8.06999998,16.374 C8.53800232,16.9380028 8.77199998,17.8799934 8.77199998,19.2 L8.77199998,28.056 C8.77199998,28.7520035 8.98799782,29.2859981 9.41999998,29.658 C9.85200214,30.0300019 10.3919967,30.216 11.04,30.216 C11.6880032,30.216 12.2219979,30.0300019 12.642,29.658 C13.0620021,29.2859981 13.272,28.7520035 13.272,28.056 L13.272,20.028 C13.272,18.635993 13.6199965,17.538004 14.316,16.734 C15.0120035,15.929996 15.9479941,15.528 17.124,15.528 C18.0840048,15.528 18.7979976,15.8099972 19.266,16.374 C19.7340023,16.9380028 19.968,17.8799934 19.968,19.2 L19.968,28.056 C19.968,28.7520035 20.1779979,29.2859981 20.598,29.658 C21.0180021,30.0300019 21.5519967,30.216 22.2,30.216 C22.8720033,30.216 23.4179979,30.0300019 23.838,29.658 C24.2580021,29.2859981 24.468,28.7520035 24.468,28.056 L24.468,19.2 C24.468,16.6559873 23.9580051,14.8140057 22.938,13.674 C21.9179949,12.5339943 20.4480096,11.964 18.528,11.964 C17.2319935,11.964 16.0680051,12.263997 15.036,12.864 C14.0039948,13.464003 13.2240026,14.267995 12.696,15.276 C11.8079955,13.067989 10.0440132,11.964 7.40399998,11.964 C6.20399398,11.964 5.1420046,12.2159975 4.21799998,12.72 C3.29399536,13.2240025 2.55600274,13.9559952 2.00399998,14.916 L2.00399998,14.052 C2.00399998,13.4039968 1.80600196,12.9060017 1.40999998,12.558 C1.25976941,12.4259792 1.09313295,12.319001 0.910089761,12.2370652 C4.2308857,5.01465746 11.5298248,0 20,0 C28.5918738,0 35.9786134,5.15979289 39.2305768,12.5497367 C38.1595701,12.1592442 36.9720505,11.964 35.668,11.964 C33.867991,11.964 32.2900068,12.3359963 30.934,13.08 C29.5779932,13.8240037 28.5280037,14.8859931 27.784,16.266 C27.0399963,17.6460069 26.668,19.2599908 26.668,21.108 C26.668,22.9560092 27.0399963,24.575993 27.784,25.968 C28.5280037,27.360007 29.5779932,28.4279963 30.934,29.172 C32.2900068,29.9160037 33.867991,30.288 35.668,30.288 C36.9175866,30.288 38.0601729,30.1087241 39.0957749,29.7501685 Z" id="Combined-Shape"></path>
            </g>
        </g>
    </g>
</svg>
