<svg width="30px" height="30px" viewBox="0 0 30 30" version="1.1" xmlns="http://www.w3.org/2000/svg" xmlns:xlink="http://www.w3.org/1999/xlink">
    <g id="Page-1" stroke="none" stroke-width="1" fill="none" fill-rule="evenodd">
        <g id="Icons" transform="translate(-105.000000, -137.000000)" fill="#FFFFFF">
            <g id="Group-2" transform="translate(105.000000, 137.000000)">
                <path d="M14.8964466,10.6538059 L11.4644661,7.22182541 C10.2928932,6.05025253 8.39339828,6.05025253 7.22182541,7.22182541 C6.05025253,8.39339828 6.05025253,10.2928932 7.22182541,11.4644661 L10.6538059,14.8964466 L6.86827202,18.6819805 C5.69669914,19.8535534 5.69669914,21.7530483 6.86827202,22.9246212 C8.03984489,24.0961941 9.93933983,24.0961941 11.1109127,22.9246212 L14.8964466,19.1390873 L18.5355339,22.7781746 C19.7071068,23.9497475 21.6066017,23.9497475 22.7781746,22.7781746 C23.9497475,21.6066017 23.9497475,19.7071068 22.7781746,18.5355339 L19.1390873,14.8964466 L22.4246212,11.6109127 C23.5961941,10.4393398 23.5961941,8.53984489 22.4246212,7.36827202 C21.2530483,6.19669914 19.3535534,6.19669914 18.1819805,7.36827202 L14.8964466,10.6538059 Z M15,30 C6.71572875,30 0,23.2842712 0,15 C0,6.71572875 6.71572875,0 15,0 C23.2842712,0 30,6.71572875 30,15 C30,23.2842712 23.2842712,30 15,30 Z" id="Combined-Shape"></path>
            </g>
        </g>
    </g>
</svg>
